HIERARCHY
ROOT hip
{
	OFFSET 0.000000 0.000000 0.000000 
	CHANNELS 6 Xposition Yposition Zposition Xrotation Zrotation Yrotation
	JOINT abdomen
	{
		OFFSET 0.000000 3.402643 0.000000 
		CHANNELS 3 Xrotation Zrotation Yrotation
		JOINT chest
		{
			OFFSET 0.000000 8.438565 -0.680529 
			CHANNELS 3 Xrotation Zrotation Yrotation
			JOINT neck
			{
				OFFSET 0.000000 10.207942 -0.272212 
				CHANNELS 3 Xrotation Zrotation Yrotation
				JOINT head
				{
					OFFSET 0.000000 3.130431 0.000000 
					CHANNELS 3 Xrotation Zrotation Yrotation
					End Site
					{
						OFFSET 0.000000 3.130435 0.000000 
					}
				}
			}
			JOINT lCollar
			{
				OFFSET 3.470700 6.669187 -0.816635 
				CHANNELS 3 Yrotation Zrotation Xrotation
				JOINT lShldr
				{
					OFFSET 3.198488 0.000000 0.000000 
					CHANNELS 3 Zrotation Yrotation Xrotation
					JOINT lForeArm
					{
						OFFSET 10.139888 0.000000 0.000000 
						CHANNELS 3 Yrotation Zrotation Xrotation
						JOINT lHand
						{
							OFFSET 8.370511 0.000000 0.000000 
							CHANNELS 3 Zrotation Yrotation Xrotation
							End Site
							{
								OFFSET 4.083176 0.000000 0.000000 
							}
						}
					}
				}
			}
			JOINT rCollar
			{
				OFFSET -3.470700 6.669187 -0.816635 
				CHANNELS 3 Yrotation Zrotation Xrotation
				JOINT rShldr
				{
					OFFSET -3.198488 0.000000 0.000000 
					CHANNELS 3 Zrotation Yrotation Xrotation
					JOINT rForeArm
					{
						OFFSET -10.139888 0.000000 0.000000 
						CHANNELS 3 Yrotation Zrotation Xrotation
						JOINT rHand
						{
							OFFSET -8.370511 0.000000 0.000000 
							CHANNELS 3 Zrotation Yrotation Xrotation
							End Site
							{
								OFFSET -4.083176 0.000000 0.000000 
							}
						}
					}
				}
			}
		}
	}
	JOINT lThigh
	{
		OFFSET 5.308129 -1.633274 1.361059 
		CHANNELS 3 Xrotation Zrotation Yrotation
		JOINT lShin
		{
			OFFSET -2.041588 -20.007561 0.000000 
			CHANNELS 3 Xrotation Zrotation Yrotation
			JOINT lFoot
			{
				OFFSET 0.000000 -19.190928 -1.224953 
				CHANNELS 3 Xrotation Yrotation Zrotation
				End Site
				{
					OFFSET 0.000000 -2.449906 4.627600 
				}
			}
		}
	}
	JOINT rThigh
	{
		OFFSET -5.308129 -1.633274 1.361059 
		CHANNELS 3 Xrotation Zrotation Yrotation
		JOINT rShin
		{
			OFFSET 2.041588 -20.007561 0.000000 
			CHANNELS 3 Xrotation Zrotation Yrotation
			JOINT rFoot
			{
				OFFSET 0.000000 -19.190928 -1.224953 
				CHANNELS 3 Xrotation Yrotation Zrotation
				End Site
				{
					OFFSET 0.000000 -2.449906 4.627600 
				}
			}
		}
	}
}
MOTION
Frames: 11
Frame Time: 0.016667
2.890114 42.866344 -0.391487 -0.068520 -3.925780 3.774210 -22.860701 2.645920 0.441831 15.130300 2.780470 0.527311 6.919751 -7.803617 -22.828491 15.399500 11.193800 -3.219390 2.000000 -2.000000 0.000000 -91.084297 13.085700 167.498001 35.742599 -0.325815 0.079921 0.048745 -0.036087 -149.919998 -2.000000 2.000000 0.000000 50.236000 20.088301 127.962997 -65.947800 0.270571 0.124852 -0.059169 0.038826 -150.925995 -6.722582 2.272869 0.011217 28.705151 3.223266 2.018671 -17.493382 -2.202437 -0.759015 -4.819566 5.219248 -0.228879 25.553612 -2.976192 -1.903479 -17.110889 -9.684384 -3.657039 
2.884868 42.865704 -0.415724 -0.058738 -4.023440 3.509970 -22.813000 2.779140 0.546323 15.208000 2.887780 0.589472 7.109423 -7.778511 -22.602938 15.404700 11.078500 -3.240160 2.000000 -2.000000 0.000000 -91.240601 13.095700 167.595993 35.576500 -0.326046 0.079599 0.048617 -0.035528 -149.714996 -2.000000 2.000000 0.000000 51.103600 21.662300 126.774002 -65.899002 0.270677 0.124804 -0.059403 0.039754 -151.266998 -6.759972 2.390028 0.062427 28.755339 3.216663 2.026216 -17.510563 -2.056152 -0.709906 -4.895354 5.322416 -0.226157 25.552914 -2.978983 -1.894324 -16.973082 -9.531116 -3.578538 
2.879633 42.865189 -0.439959 -0.058746 -4.121090 3.246400 -22.765499 2.917980 0.638492 15.295500 3.004890 0.661309 7.288492 -7.757936 -22.390621 15.409900 10.963200 -3.253080 2.000000 -2.000000 0.000000 -91.406700 13.105700 167.694000 35.420300 -0.326262 0.079295 0.048491 -0.034967 -149.509995 -2.000000 2.000000 0.000000 51.951801 23.246000 125.591003 -65.850098 0.270784 0.124757 -0.059643 0.040681 -151.608994 -6.765090 2.473064 0.131710 28.755373 3.212450 2.015403 -17.506571 -1.920368 -0.643794 -4.956488 5.385841 -0.231896 25.546659 -2.953128 -1.908398 -16.863482 -9.367855 -3.496407 
2.885408 42.867378 -0.453951 -0.078331 -4.160150 3.130670 -22.774900 2.948680 0.720393 15.227100 2.994830 0.697692 7.535652 -7.614015 -22.604641 15.619800 10.983500 -3.186930 2.000000 -2.000000 0.000000 -91.416603 13.194200 167.957001 35.166401 -0.326612 0.078801 0.048384 -0.034487 -149.334000 -2.000000 2.000000 0.000000 52.352600 24.212900 125.514000 -65.742699 0.271017 0.124651 -0.060910 0.045239 -153.298996 -6.753511 2.522494 0.170382 28.794769 3.215306 2.025354 -17.504150 -1.843019 -0.633298 -4.942971 5.384554 -0.357431 25.526308 -2.963320 -1.920538 -16.833185 -9.183141 -3.411903 
2.891182 42.869438 -0.467942 -0.107711 -4.199210 3.005910 -22.774700 2.991970 0.808057 15.148900 2.984730 0.743357 7.774925 -7.490016 -22.821169 15.829700 11.003700 -3.132230 2.000000 -2.000000 0.000000 -91.426598 13.272900 168.229996 34.912498 -0.326960 0.078305 0.048279 -0.034006 -149.158005 -2.000000 2.000000 0.000000 52.763302 25.179800 125.438004 -65.625504 0.271272 0.124536 -0.072077 0.059523 -154.988007 -6.736671 2.557344 0.208949 28.862938 3.224977 2.036769 -17.559494 -1.781411 -0.610649 -4.932964 5.380035 -0.492867 25.467665 -2.960402 -1.920666 -16.763247 -8.999265 -3.346378 
2.903549 42.870716 -0.483546 -0.117516 -4.287100 2.860320 -22.696800 3.060190 0.878469 15.197800 2.975240 0.785871 7.862311 -7.444756 -22.876368 15.968900 10.997900 -3.084740 2.000000 -2.000000 0.000000 -91.514503 13.204800 168.309006 34.892899 -0.326987 0.078266 0.048170 -0.033498 -148.973007 -2.000000 2.000000 0.000000 52.510201 26.332100 125.444000 -65.059097 0.272501 0.123972 -0.072743 0.051755 -155.740005 -6.819777 2.607773 0.232576 28.989861 3.232631 2.037211 -17.568535 -1.686254 -0.579064 -4.858898 5.460675 -0.394355 25.290422 -2.956324 -1.902743 -16.655071 -8.970254 -3.330813 
2.915930 42.872009 -0.499145 -0.127324 -4.374990 2.705000 -22.619101 3.137470 0.945231 15.246800 2.965760 0.828370 7.941429 -7.399817 -22.924894 16.118000 10.991700 -3.037280 2.000000 -2.000000 0.000000 -91.602402 13.126800 168.386993 34.863602 -0.327027 0.078209 0.048062 -0.032990 -148.787003 -2.000000 2.000000 0.000000 52.257198 27.474701 125.445000 -64.482903 0.273744 0.123386 -0.073426 0.053718 -156.481995 -6.830513 2.680564 0.262726 29.028807 3.236042 2.037598 -17.567097 -1.592885 -0.548043 -4.877165 5.549172 -0.297375 25.290356 -2.956925 -1.902912 -16.607573 -8.940331 -3.298247 
2.932657 42.881130 -0.509569 -0.117527 -4.355460 2.616320 -22.666700 3.147290 1.055040 15.178600 2.916810 0.887992 7.900023 -7.482933 -22.847706 16.057501 10.975100 -3.081740 2.000000 -2.000000 0.000000 -91.563499 13.322600 168.582001 34.805099 -0.327106 0.078094 0.048062 -0.032990 -148.787003 -2.000000 2.000000 0.000000 51.662498 28.158001 125.622002 -63.877499 0.275045 0.122757 -0.073638 0.054310 -156.707001 -6.805745 2.629711 0.290946 28.979380 3.239117 2.038896 -17.563885 -1.517886 -0.516650 -4.850910 5.507165 -0.187538 25.201967 -2.952706 -1.893496 -16.529470 -8.944107 -3.281809 
2.949395 42.890388 -0.519992 -0.117524 -4.335930 2.528390 -22.724001 3.156960 1.165030 15.120100 2.867920 0.938453 7.863294 -7.556445 -22.778574 15.997100 10.958500 -3.126170 2.000000 -2.000000 0.000000 -91.524696 13.518400 168.776993 34.746498 -0.327186 0.077979 0.048062 -0.032990 -148.787003 -2.000000 2.000000 0.000000 51.057999 28.841400 125.789001 -63.281799 0.276318 0.122124 -0.073843 0.054876 -156.921997 -6.701228 2.593420 0.324543 28.803782 3.223220 2.027235 -17.520487 -1.446783 -0.497954 -4.923269 5.469233 -0.099962 25.288292 -2.972213 -1.896473 -16.527691 -8.970263 -3.285477 
2.961628 42.893585 -0.528699 -0.088138 -4.296870 2.662840 -22.917801 3.104340 1.220170 14.866400 2.759790 0.955908 7.833336 -7.666557 -22.633984 15.845500 10.907300 -3.216480 2.000000 -2.000000 0.000000 -91.359001 13.987700 169.009995 34.834400 -0.327067 0.078152 0.048085 -0.033097 -148.826004 -2.000000 2.000000 0.000000 50.374802 29.300400 125.800003 -62.930199 0.277066 0.121745 -0.073833 0.054850 -156.912003 -6.825232 2.543777 0.320999 28.841768 3.232223 2.019307 -17.475241 -1.526300 -0.508893 -4.957709 5.424780 -0.153175 25.209528 -2.969877 -1.887248 -16.476170 -9.062263 -3.321151 
2.973874 42.896801 -0.537409 -0.058756 -4.257810 2.797320 -23.121300 3.039310 1.270060 14.612700 2.661420 0.973307 7.816293 -7.774570 -22.488092 15.704000 10.855600 -3.302830 2.000000 -2.000000 0.000000 -91.193398 14.466700 169.242996 34.931999 -0.326933 0.078343 0.048113 -0.033230 -148.875000 -2.000000 2.000000 0.000000 49.691700 29.759300 125.820000 -62.568901 0.277832 0.121350 -0.073815 0.054798 -156.891998 -6.810694 2.503975 0.300364 28.725925 3.216119 2.026420 -17.399435 -1.598919 -0.559727 -4.983432 5.374396 -0.206270 25.218363 -2.975305 -1.878610 -16.513227 -9.170421 -3.383838 
